<mxfile host="app.diagrams.net" modified="2022-12-11T05:41:54.680Z" agent="5.0 (Windows NT 10.0; Win64; x64) AppleWebKit/537.36 (KHTML, like Gecko) Chrome/108.0.0.0 Safari/537.36 Edg/108.0.1462.46" version="20.6.2" etag="eYvLfiZZpg6xD1cF4sjZ" type="github">
  <diagram id="M4k7FfC9nuhaKQpCs-OA" name="第 1 页">
    <mxGraphModel dx="981" dy="542" grid="1" gridSize="10" guides="1" tooltips="1" connect="1" arrows="1" fold="1" page="1" pageScale="1" pageWidth="827" pageHeight="1169" math="0" shadow="0">
      <root>
        <mxCell id="0" />
        <mxCell id="1" parent="0" />
        <mxCell id="2wptUwKGagTrkUcipgdk-1" value="&lt;span style=&quot;font-size: 16px;&quot;&gt;广告接口服务&lt;/span&gt;" style="rounded=1;whiteSpace=wrap;html=1;fillColor=#b1ddf0;strokeColor=#10739e;fontFamily=Verdana;" vertex="1" parent="1">
          <mxGeometry x="340" y="60" width="120" height="50" as="geometry" />
        </mxCell>
        <mxCell id="2wptUwKGagTrkUcipgdk-2" value="" style="endArrow=classic;html=1;rounded=0;fontFamily=Verdana;fontSize=16;exitX=0.5;exitY=1;exitDx=0;exitDy=0;" edge="1" parent="1" source="2wptUwKGagTrkUcipgdk-1">
          <mxGeometry width="50" height="50" relative="1" as="geometry">
            <mxPoint x="390" y="430" as="sourcePoint" />
            <mxPoint x="400" y="140" as="targetPoint" />
          </mxGeometry>
        </mxCell>
        <mxCell id="2wptUwKGagTrkUcipgdk-3" value="天幕" style="rounded=1;whiteSpace=wrap;html=1;fontFamily=Verdana;fontSize=16;fillColor=#b1ddf0;strokeColor=#10739e;" vertex="1" parent="1">
          <mxGeometry x="340" y="140" width="120" height="50" as="geometry" />
        </mxCell>
        <mxCell id="2wptUwKGagTrkUcipgdk-6" value="实时统计接口机" style="rounded=1;whiteSpace=wrap;html=1;fontFamily=Verdana;fontSize=16;fillColor=#dae8fc;strokeColor=#6c8ebf;" vertex="1" parent="1">
          <mxGeometry x="140" y="260" width="120" height="50" as="geometry" />
        </mxCell>
        <mxCell id="2wptUwKGagTrkUcipgdk-11" value="统计库" style="rounded=1;whiteSpace=wrap;html=1;fontFamily=Verdana;fontSize=13;fillColor=#ffe6cc;strokeColor=#d79b00;" vertex="1" parent="1">
          <mxGeometry x="340" y="480" width="120" height="50" as="geometry" />
        </mxCell>
        <mxCell id="2wptUwKGagTrkUcipgdk-20" value="实时统计接口机" style="rounded=1;whiteSpace=wrap;html=1;fontFamily=Verdana;fontSize=16;fillColor=#dae8fc;strokeColor=#6c8ebf;" vertex="1" parent="1">
          <mxGeometry x="540" y="260" width="120" height="50" as="geometry" />
        </mxCell>
        <mxCell id="2wptUwKGagTrkUcipgdk-32" style="edgeStyle=orthogonalEdgeStyle;rounded=0;orthogonalLoop=1;jettySize=auto;html=1;exitX=1;exitY=0;exitDx=0;exitDy=0;entryX=0.5;entryY=0;entryDx=0;entryDy=0;fontFamily=Verdana;fontSize=13;" edge="1" parent="1" source="2wptUwKGagTrkUcipgdk-34" target="2wptUwKGagTrkUcipgdk-6">
          <mxGeometry relative="1" as="geometry" />
        </mxCell>
        <mxCell id="2wptUwKGagTrkUcipgdk-33" style="edgeStyle=orthogonalEdgeStyle;rounded=0;orthogonalLoop=1;jettySize=auto;html=1;exitX=0;exitY=0;exitDx=0;exitDy=0;entryX=0.5;entryY=0;entryDx=0;entryDy=0;fontFamily=Verdana;fontSize=13;" edge="1" parent="1" source="2wptUwKGagTrkUcipgdk-34" target="2wptUwKGagTrkUcipgdk-20">
          <mxGeometry relative="1" as="geometry" />
        </mxCell>
        <mxCell id="2wptUwKGagTrkUcipgdk-34" value="" style="shape=partialRectangle;whiteSpace=wrap;html=1;bottom=1;right=1;left=1;top=0;fillColor=none;routingCenterX=-0.5;fontFamily=Verdana;fontSize=13;direction=west;" vertex="1" parent="1">
          <mxGeometry x="200" y="220" width="400" height="20" as="geometry" />
        </mxCell>
        <mxCell id="2wptUwKGagTrkUcipgdk-35" value="" style="endArrow=none;html=1;rounded=0;fontFamily=Verdana;fontSize=13;exitX=0.5;exitY=1;exitDx=0;exitDy=0;entryX=0.5;entryY=1;entryDx=0;entryDy=0;" edge="1" parent="1" source="2wptUwKGagTrkUcipgdk-3" target="2wptUwKGagTrkUcipgdk-34">
          <mxGeometry width="50" height="50" relative="1" as="geometry">
            <mxPoint x="390" y="310" as="sourcePoint" />
            <mxPoint x="440" y="260" as="targetPoint" />
          </mxGeometry>
        </mxCell>
        <mxCell id="2wptUwKGagTrkUcipgdk-51" value="" style="endArrow=classic;html=1;rounded=0;fontSize=14;exitX=0.5;exitY=1;exitDx=0;exitDy=0;entryX=0.5;entryY=0;entryDx=0;entryDy=0;" edge="1" parent="1" source="2wptUwKGagTrkUcipgdk-6">
          <mxGeometry width="50" height="50" relative="1" as="geometry">
            <mxPoint x="390" y="430" as="sourcePoint" />
            <mxPoint x="200" y="350" as="targetPoint" />
          </mxGeometry>
        </mxCell>
        <mxCell id="2wptUwKGagTrkUcipgdk-60" value="本地缓存" style="rounded=1;whiteSpace=wrap;html=1;fontFamily=Verdana;fontSize=14;fillColor=#d5e8d4;strokeColor=#82b366;" vertex="1" parent="1">
          <mxGeometry x="560" y="350" width="80" height="40" as="geometry" />
        </mxCell>
        <mxCell id="2wptUwKGagTrkUcipgdk-63" value="" style="edgeStyle=orthogonalEdgeStyle;rounded=0;orthogonalLoop=1;jettySize=auto;html=1;fontSize=24;" edge="1" parent="1" source="2wptUwKGagTrkUcipgdk-61" target="2wptUwKGagTrkUcipgdk-62">
          <mxGeometry relative="1" as="geometry" />
        </mxCell>
        <mxCell id="2wptUwKGagTrkUcipgdk-61" value="&lt;font style=&quot;font-size: 14px;&quot;&gt;定时任务&lt;/font&gt;" style="rounded=1;whiteSpace=wrap;html=1;fillColor=#f8cecc;strokeColor=#b85450;" vertex="1" parent="1">
          <mxGeometry x="640" y="420" width="100" height="40" as="geometry" />
        </mxCell>
        <mxCell id="2wptUwKGagTrkUcipgdk-62" value="Redis集群" style="rounded=1;whiteSpace=wrap;html=1;fontFamily=Verdana;fontSize=14;fillColor=#d5e8d4;strokeColor=#82b366;" vertex="1" parent="1">
          <mxGeometry x="480" y="420" width="80" height="40" as="geometry" />
        </mxCell>
        <mxCell id="2wptUwKGagTrkUcipgdk-64" value="&lt;p style=&quot;line-height: 60%;&quot;&gt;&lt;span style=&quot;font-size: 12px;&quot;&gt;更新&lt;/span&gt;&lt;/p&gt;" style="text;strokeColor=none;fillColor=none;html=1;fontSize=24;fontStyle=1;verticalAlign=middle;align=center;" vertex="1" parent="1">
          <mxGeometry x="550" y="410" width="100" height="40" as="geometry" />
        </mxCell>
        <mxCell id="2wptUwKGagTrkUcipgdk-66" value="" style="endArrow=classic;html=1;rounded=0;fontSize=24;exitX=0.5;exitY=1;exitDx=0;exitDy=0;entryX=0;entryY=0.5;entryDx=0;entryDy=0;" edge="1" parent="1" target="2wptUwKGagTrkUcipgdk-11">
          <mxGeometry width="50" height="50" relative="1" as="geometry">
            <mxPoint x="110" y="460" as="sourcePoint" />
            <mxPoint x="440" y="310" as="targetPoint" />
            <Array as="points">
              <mxPoint x="110" y="505" />
            </Array>
          </mxGeometry>
        </mxCell>
        <mxCell id="2wptUwKGagTrkUcipgdk-67" value="" style="endArrow=classic;html=1;rounded=0;fontSize=24;exitX=0.5;exitY=1;exitDx=0;exitDy=0;entryX=1;entryY=0.5;entryDx=0;entryDy=0;" edge="1" parent="1" source="2wptUwKGagTrkUcipgdk-61" target="2wptUwKGagTrkUcipgdk-11">
          <mxGeometry width="50" height="50" relative="1" as="geometry">
            <mxPoint x="390" y="360" as="sourcePoint" />
            <mxPoint x="440" y="310" as="targetPoint" />
            <Array as="points">
              <mxPoint x="690" y="505" />
            </Array>
          </mxGeometry>
        </mxCell>
        <mxCell id="2wptUwKGagTrkUcipgdk-68" value="" style="endArrow=classic;html=1;rounded=0;fontSize=24;exitX=1;exitY=0.5;exitDx=0;exitDy=0;entryX=0.5;entryY=0;entryDx=0;entryDy=0;" edge="1" parent="1" source="2wptUwKGagTrkUcipgdk-60" target="2wptUwKGagTrkUcipgdk-61">
          <mxGeometry width="50" height="50" relative="1" as="geometry">
            <mxPoint x="390" y="360" as="sourcePoint" />
            <mxPoint x="440" y="310" as="targetPoint" />
            <Array as="points">
              <mxPoint x="690" y="370" />
            </Array>
          </mxGeometry>
        </mxCell>
        <mxCell id="2wptUwKGagTrkUcipgdk-79" value="" style="swimlane;startSize=0;fontFamily=Verdana;fontSize=13;dashed=1;fillColor=#dae8fc;strokeColor=#6c8ebf;" vertex="1" parent="1">
          <mxGeometry x="50" y="210" width="280" height="340" as="geometry" />
        </mxCell>
        <mxCell id="2wptUwKGagTrkUcipgdk-80" value="广州机房" style="rounded=1;whiteSpace=wrap;html=1;dashed=1;fontFamily=Verdana;fontSize=16;fillColor=#dae8fc;strokeColor=#6c8ebf;" vertex="1" parent="2wptUwKGagTrkUcipgdk-79">
          <mxGeometry x="10" y="10" width="100" height="30" as="geometry" />
        </mxCell>
        <mxCell id="2wptUwKGagTrkUcipgdk-81" value="本地缓存" style="rounded=1;whiteSpace=wrap;html=1;fontFamily=Verdana;fontSize=14;fillColor=#d5e8d4;strokeColor=#82b366;" vertex="1" parent="2wptUwKGagTrkUcipgdk-79">
          <mxGeometry x="110" y="140" width="80" height="40" as="geometry" />
        </mxCell>
        <mxCell id="2wptUwKGagTrkUcipgdk-82" value="Redis集群" style="rounded=1;whiteSpace=wrap;html=1;fontFamily=Verdana;fontSize=14;fillColor=#d5e8d4;strokeColor=#82b366;" vertex="1" parent="2wptUwKGagTrkUcipgdk-79">
          <mxGeometry x="190" y="210" width="80" height="40" as="geometry" />
        </mxCell>
        <mxCell id="2wptUwKGagTrkUcipgdk-83" value="" style="edgeStyle=orthogonalEdgeStyle;rounded=0;orthogonalLoop=1;jettySize=auto;html=1;fontSize=14;" edge="1" parent="2wptUwKGagTrkUcipgdk-79" source="2wptUwKGagTrkUcipgdk-84" target="2wptUwKGagTrkUcipgdk-82">
          <mxGeometry relative="1" as="geometry" />
        </mxCell>
        <mxCell id="2wptUwKGagTrkUcipgdk-84" value="&lt;font style=&quot;font-size: 14px;&quot;&gt;定时任务&lt;/font&gt;" style="rounded=1;whiteSpace=wrap;html=1;fillColor=#f8cecc;strokeColor=#b85450;" vertex="1" parent="2wptUwKGagTrkUcipgdk-79">
          <mxGeometry x="10" y="210" width="100" height="40" as="geometry" />
        </mxCell>
        <mxCell id="2wptUwKGagTrkUcipgdk-85" value="" style="endArrow=classic;html=1;rounded=0;fontSize=13;exitX=0;exitY=0.5;exitDx=0;exitDy=0;entryX=0.5;entryY=0;entryDx=0;entryDy=0;" edge="1" parent="2wptUwKGagTrkUcipgdk-79" source="2wptUwKGagTrkUcipgdk-81" target="2wptUwKGagTrkUcipgdk-84">
          <mxGeometry width="50" height="50" relative="1" as="geometry">
            <mxPoint x="340" y="220" as="sourcePoint" />
            <mxPoint x="390" y="170" as="targetPoint" />
            <Array as="points">
              <mxPoint x="60" y="160" />
            </Array>
          </mxGeometry>
        </mxCell>
        <mxCell id="2wptUwKGagTrkUcipgdk-86" value="&lt;p style=&quot;line-height: 60%;&quot;&gt;&lt;font style=&quot;font-size: 12px;&quot;&gt;定时&lt;br&gt;读取&lt;/font&gt;&lt;/p&gt;" style="text;strokeColor=none;fillColor=none;html=1;fontSize=24;fontStyle=1;verticalAlign=middle;align=center;" vertex="1" parent="2wptUwKGagTrkUcipgdk-79">
          <mxGeometry x="-20" y="160" width="100" height="40" as="geometry" />
        </mxCell>
        <mxCell id="2wptUwKGagTrkUcipgdk-87" value="&lt;p style=&quot;line-height: 60%;&quot;&gt;&lt;span style=&quot;font-size: 12px;&quot;&gt;更新&lt;/span&gt;&lt;/p&gt;" style="text;strokeColor=none;fillColor=none;html=1;fontSize=24;fontStyle=1;verticalAlign=middle;align=center;" vertex="1" parent="2wptUwKGagTrkUcipgdk-79">
          <mxGeometry x="95" y="200" width="100" height="40" as="geometry" />
        </mxCell>
        <mxCell id="2wptUwKGagTrkUcipgdk-97" value="" style="swimlane;startSize=0;fontSize=24;dashed=1;fillColor=#dae8fc;strokeColor=#6c8ebf;" vertex="1" parent="1">
          <mxGeometry x="470" y="210" width="280" height="340" as="geometry" />
        </mxCell>
        <mxCell id="2wptUwKGagTrkUcipgdk-101" value="北京机房" style="rounded=1;whiteSpace=wrap;html=1;dashed=1;fontFamily=Verdana;fontSize=16;fillColor=#dae8fc;strokeColor=#6c8ebf;" vertex="1" parent="2wptUwKGagTrkUcipgdk-97">
          <mxGeometry x="170" y="10" width="100" height="30" as="geometry" />
        </mxCell>
        <mxCell id="2wptUwKGagTrkUcipgdk-102" value="&lt;p style=&quot;line-height: 60%;&quot;&gt;&lt;font style=&quot;font-size: 12px;&quot;&gt;定时&lt;br&gt;读取&lt;/font&gt;&lt;/p&gt;" style="text;strokeColor=none;fillColor=none;html=1;fontSize=24;fontStyle=1;verticalAlign=middle;align=center;" vertex="1" parent="2wptUwKGagTrkUcipgdk-97">
          <mxGeometry x="200" y="160" width="100" height="40" as="geometry" />
        </mxCell>
        <mxCell id="2wptUwKGagTrkUcipgdk-100" value="" style="endArrow=classic;html=1;rounded=0;fontSize=24;exitX=0.5;exitY=1;exitDx=0;exitDy=0;entryX=0.5;entryY=0;entryDx=0;entryDy=0;" edge="1" parent="1" source="2wptUwKGagTrkUcipgdk-20" target="2wptUwKGagTrkUcipgdk-60">
          <mxGeometry width="50" height="50" relative="1" as="geometry">
            <mxPoint x="500" y="360" as="sourcePoint" />
            <mxPoint x="550" y="310" as="targetPoint" />
          </mxGeometry>
        </mxCell>
      </root>
    </mxGraphModel>
  </diagram>
</mxfile>
